{
  "title": "X-Men: Days of Future Past (2014) Dual Audio BDRip 720p",
  "uid": 11158967,
  "size": 4695886931,
  "categoryP": "video",
  "categoryS": "hd___movies",
  "magnet": "?xt=urn:btih:7e9f99425081151c7362f9e996a7a048271beb63&amp;dn=X-Men%3A+Days+of+Future+Past+%282014%29+Dual+Audio+BDRip+720p&amp;tr=udp%3A%2F%2Ftracker.openbittorrent.com%3A80&amp;tr=udp%3A%2F%2Fopen.demonii.com%3A1337&amp;tr=udp%3A%2F%2Ftracker.coppersurfer.tk%3A6969&amp;tr=udp%3A%2F%2Fexodus.desync.com%3A6969",
  "seeders": 41,
  "leechers": 0,
  "uploader": "darkj6",
  "files": -1,
  "time": 1412484671,
  "description": " ______   _______  ______    ___   _      ___  --------|\n|      | |   _   ||    _ |  |   | | |    |   ||   |----|    \n|  _    ||  |_|  ||   | ||  |   |_| |    |   ||   |___ \n| | |   ||       ||   |_||_ |      _|    |   ||    _  |\n| |_|   ||       ||    __  ||     |_  ___|   ||   | | |\n|       ||   _   ||   |  | ||    _  ||       ||   |_| |\n|______| |__| |__||___|  |_||___| |_||_______||_______|\n            &lt;a href=&quot;\nhttps://thepiratebay.se/user/darkj6/&quot; rel=&quot;nofollow&quot; target=&quot;_NEW&quot;&gt;\nhttps://thepiratebay.se/user/darkj6/&lt;/a&gt;\n\nJoin ThePirateBay Forum:\n                                     &lt;a href=&quot;\nhttps://forum.suprbay.org/member.php?action=register&amp;referrer=908&quot; rel=&quot;nofollow&quot; target=&quot;_NEW&quot;&gt;\nhttps://forum.suprbay.org/member.php?action=register&amp;referrer=908&lt;/a&gt;\n\n   &lt;a href=&quot;\nhttp://www.imdb.com/title/tt1877832/&quot; rel=&quot;nofollow&quot; target=&quot;_NEW&quot;&gt;\nhttp://www.imdb.com/title/tt1877832/&lt;/a&gt;\n\n\n\n\nCodec: x264 \n\nFormat: MKV \n\nQuality: BDRip 720p (Source: X-Men: Days of Future Past (2014) Blu-ray CEE 1080p AVC DTS 5.1) \n\nVideo: MPEG-4 AVC (2.40: 1) 1280x534 pix, 23.976 fps, 3860 kbps, 0.236 Bits / Pixel \n\nI Audio: Dolby Digital (5.1) 16 bit, 48 kHz, 448 Kbps (DUB) \n\nII Audio: Dolby Digital (5.1) 16 bit, 48 kHz, 448 Kbps (ENG &quot;Original&quot;) \n\nSubtitles: SRT Russian (forced, full), English \n\nMenu: Keep the original chapter is Blu-ray\n &lt;a href=&quot;\nhttp://lostpic.net/?photo=1790881&quot; rel=&quot;nofollow&quot; target=&quot;_NEW&quot;&gt;\nhttp://lostpic.net/?photo=1790881&lt;/a&gt;\n &lt;a href=&quot;\nhttp://lostpic.net/?photo=1790882&quot; rel=&quot;nofollow&quot; target=&quot;_NEW&quot;&gt;\nhttp://lostpic.net/?photo=1790882&lt;/a&gt;\n &lt;a href=&quot;\nhttp://lostpic.net/?photo=1790883&quot; rel=&quot;nofollow&quot; target=&quot;_NEW&quot;&gt;\nhttp://lostpic.net/?photo=1790883&lt;/a&gt;\n &lt;a href=&quot;\nhttp://lostpic.net/?photo=1790880&quot; rel=&quot;nofollow&quot; target=&quot;_NEW&quot;&gt;\nhttp://lostpic.net/?photo=1790880&lt;/a&gt;\n\nGeneral \nUnique ID: 232269774524628695906292836738617406300 (0xAEBD88096443FCB2A32F0F4D76C1735C) \nFormat: Matroska \nFormat version: Version 2 \nFile size: 4.37 GiB \nDuration: 2h 11mn \nOverall bit rate: 4758 Kbps \nMovie name: X-Men (2014) BDRip (720p) \nEncoded date: UTC 2014-10-04 01:21:29 \nWriting application: mkvmerge v5.8.0 ('No Sleep / Pillow') built on Sep February 2012 15:37:04 \nWriting library: libebml v1.2.3 + libmatroska v1.3.0 \n\nVideo \nID: 1 \nFormat: AVC \nFormat / Info: Advanced Video Codec \nFormat profile: &lt;a class=&quot;__cf_email__&quot; href=&quot;/cdn-cgi/l/email-protection&quot; data-cfemail=&quot;bcf4d5dbd4fcf088928d&quot;&gt;[email&amp;#160;protected]&lt;/a&gt;&lt;script cf-hash='f9e31' type=&quot;text/javascript&quot;&gt;\n/* &lt;![CDATA[ */!function(){try{var t=&quot;currentScript&quot;in document?document.currentScript:function(){for(var t=document.getElementsByTagName(&quot;script&quot;),e=t.length;e--;)if(t[e].getAttribute(&quot;cf-hash&quot;))return t[e]}();if(t&amp;&amp;t.previousSibling){var e,r,n,i,c=t.previousSibling,a=c.getAttribute(&quot;data-cfemail&quot;);if(a){for(e=&quot;&quot;,r=parseInt(a.substr(0,2),16),n=2;a.length-n;n+=2)i=parseInt(a.substr(n,2),16)^r,e+=String.fromCharCode(i);e=document.createTextNode(e),c.parentNode.replaceChild(e,c)}}}catch(u){}}();/* ]]&gt; */&lt;/script&gt; \nFormat settings, CABAC: Yes \nFormat settings, ReFrames: 9 frames \nCodec ID: V_MPEG4 / ISO / AVC \nDuration: 2h 11mn \nBit rate: 3860 Kbps \nWidth: 1280 pixels \nHeight: 534 pixels \nDisplay aspect ratio: 2.40: 1 \nFrame rate mode: Constant \nFrame rate: 23.976 fps \nColor space: YUV \nChroma subsampling: 4: 2: 0 \nBit depth: 8 bits \nScan type: Progressive \nBits / (Pixel * Frame): 0.236 \nStream size: 3.46 GiB (79%) \nTitle: Release by Alex260680 \nWriting library: x264 core 142 r2479 dd79a61 \nEncoding settings: cabac = 1 / ref = 9 / deblock = 1: -3: -3 / analyse = 0x3: 0x133 / me = umh / subme = 11 / psy = 1 / psy_rd = 1.00: 0.00 / mixed_ref = 1 / me_range = 32 / chroma_me = 1 / trellis = 2 / 8x8dct = 1 / cqm = 0 / deadzone = 21,11 / fast_pskip = 0 / chroma_qp_offset = -2 / threads = 6 / lookahead_threads = 1 / sliced_threads = 0 / nr = 0 / decimate = 0 / interlaced = 0 / bluray_compat = 0 / constrained_intra = 0 / bframes = 9 / b_pyramid = 2 / b_adapt = 2 / b_bias = 0 / direct = 3 / weightb = 1 / open_gop = 0 / weightp = 2 / keyint = 240 / keyint_min = 23 / scenecut = 40 / intra_refresh = 0 / rc = 2pass / mbtree = 0 / bitrate = 3860 / ratetol = 1.0 / qcomp = 0.60 / qpmin = 0 / qpmax = 69 / qpstep = 4 / cplxblur = 20.0 / qblur = 0.5 / ip_ratio = 1.40 / pb_ratio = 1.30 / aq = 1: 0.70 \nLanguage: English \nDefault: Yes \nForced: No \n\nAudio # 1 \nID: 2 \nFormat: AC-3 \nFormat / Info: Audio Coding 3 \nMode extension: CM (complete main) \nFormat settings, Endianness: Big \nCodec ID: A_AC3 \nDuration: 2h 11mn \nBit rate mode: Constant \nBit rate: 448 Kbps \nChannel (s): 6 channels \nChannel positions: Front: LCR, Side: LR, LFE \nSampling rate: 48.0 KHz \nBit depth: 16 bits \nCompression mode: Lossy \nStream size: 422 MiB (9%) \nTitle: DUB \nLanguage: Russian \nDefault: Yes \nForced: No \n\nAudio # 2 \nID: 3 \nFormat: AC-3 \nFormat / Info: Audio Coding 3 \nMode extension: CM (complete main) \nFormat settings, Endianness: Big \nCodec ID: A_AC3 \nDuration: 2h 11mn \nBit rate mode: Constant \nBit rate: 448 Kbps \nChannel (s): 6 channels \nChannel positions: Front: LCR, Side: LR, LFE \nSampling rate: 48.0 KHz \nBit depth: 16 bits \nCompression mode: Lossy \nStream size: 422 MiB (9%) \nTitle: Original \nLanguage: English \nDefault: No \nForced: No \n\nText # 1 \nID: 4 \nFormat: UTF-8 \nCodec ID: S_TEXT / UTF8 \nCodec ID / Info: UTF-8 Plain Text \nTitle: Forced \nLanguage: Russian \nDefault: Yes \nForced: No \n\nText # 2 \nID: 5 \nFormat: UTF-8 \nCodec ID: S_TEXT / UTF8 \nCodec ID / Info: UTF-8 Plain Text \nTitle: Full \nLanguage: Russian \nDefault: No \nForced: No \n\nText # 3 \nID: 6 \nFormat: UTF-8 \nCodec ID: S_TEXT / UTF8 \nCodec ID / Info: UTF-8 Plain Text \nTitle: Full \nLanguage: English \nDefault: No \nForced: No \n\nMenu \n00: 00: 00.000: en: Chapter 01 \n00: 03: 33.338: en: Chapter 02 \n00: 08: 00.689: en: Chapter 03 \n00: 10: 28.628: en: Chapter 04 \n00: 13: 58.046: en: Chapter 05 \n00: 17: 02.021: en: Chapter 06 \n00: 20: 16.090: en: Chapter 07 \n00: 22: 11.330: en: Chapter 08 \n00: 26: 37.888: en: Chapter 09 \n00: 30: 32.039: en: Chapter 10 \n00: 34: 29.776: en: Chapter 11 \n00: 36: 00.992: en: Chapter 12 \n00: 38: 18.087: en: Chapter 13 \n00: 40: 37.101: en: Chapter 14 \n00: 45: 53.793: en: Chapter 15 \n00: 48: 53.848: en: Chapter 16 \n00: 51: 58.157: en: Chapter 17 \n00: 54: 43.113: en: Chapter 18 \n00: 57: 51.426: en: Chapter 19 \n01: 00: 48.186: en: Chapter 20 \n01: 03: 26.594: en: Chapter 21 \n01: 07: 09.567: en: Chapter 22 \n01: 09: 43.596: en: Chapter 23 \n01: 13: 11.470: en: Chapter 24 \n01: 15: 31.861: en: Chapter 25 \n01: 17: 27.726: en: Chapter 26 \n01: 19: 30.099: en: Chapter 27 \n01: 24: 50.711: en: Chapter 28 \n01: 26: 58.255: en: Chapter 29 \n01: 31: 04.250: en: Chapter 30 \n01: 34: 03.680: en: Chapter 31 \n01: 37: 33.181: en: Chapter 32 \n01: 41: 54.817: en: Chapter 33 \n01: 44: 52.995: en: Chapter 34 \n01: 47: 19.808: en: Chapter 35 \n01: 51: 29.766: en: Chapter 36 \n01: 56: 42.746: en: Chapter 37 \n02: 00: 12.414: en: Chapter 38 \n02: 02: 34.973: en: Chapter 39 \n02: 10: 31.907: en: Chapter 40\n\n\nx264 [info]: frame I: 2021 Avg QP: 14.36 size: 116061 \nx264 [info]: frame P: 48452 Avg QP: 17.80 size: 36558 \nx264 [info]: frame B: 138825 Avg QP: 19.37 size: 12992\n",
  "parsed": {
    "xt": "urn:btih:7e9f99425081151c7362f9e996a7a048271beb63",
    "dn": "X-Men: Days of Future Past (2014) Dual Audio BDRip 720p",
    "tr": [
      "udp://exodus.desync.com:6969",
      "udp://open.demonii.com:1337",
      "udp://tracker.coppersurfer.tk:6969",
      "udp://tracker.openbittorrent.com:80"
    ],
    "infoHash": "7e9f99425081151c7362f9e996a7a048271beb63",
    "infoHashBuffer": {
      "type": "Buffer",
      "data": [
        126,
        159,
        153,
        66,
        80,
        129,
        21,
        28,
        115,
        98,
        249,
        233,
        150,
        167,
        160,
        72,
        39,
        27,
        235,
        99
      ]
    },
    "name": "X-Men: Days of Future Past (2014) Dual Audio BDRip 720p",
    "announce": [
      "udp://exodus.desync.com:6969",
      "udp://open.demonii.com:1337",
      "udp://tracker.coppersurfer.tk:6969",
      "udp://tracker.openbittorrent.com:80"
    ],
    "urlList": []
  },
  "previous": 41,
  "peers": 13,
  "last_updated": "2016-12-25T05:54:04.519Z"
}